Coordinates
version=1
nRows=26
nColumns=21
inDegrees=no
endheader
time	ra_wr_s_p	ra_wr_e_f	ra_cmc1_ad_ab	ra_cmc1_f_e	ra_mcp1_f_e	ra_ip1_f_e	ra_mcp2_e_f	ra_pip2_e_f	ra_dip2_e_f	ra_mcp3_e_f	ra_pip3_e_f	ra_dip3_e_f	ra_mcp4_e_f	ra_pip4_e_f	ra_dip4_e_f	ra_mcp5_e_f	ra_pip5_e_f	ra_dip5_e_f	ra_el_e_f	ra_wr_ad_ab
0.000000	0.000000	0.087300	0.436350	0.436350	-0.392700	-0.785400	0.785400	1.047200	0.785400	0.785400	1.047200	0.785400	0.785400	1.047200	0.785400	0.785400	1.047200	0.785400	2.268928	0.000000
0.001000	-0.000006	0.087300	0.436352	0.436352	-0.392702	-0.785404	0.785404	1.047205	0.785404	0.785404	1.047205	0.785404	0.785404	1.047205	0.785404	0.785404	1.047205	0.785404	2.268915	0.000000
0.002000	-0.000019	0.087300	0.436357	0.436357	-0.392706	-0.785412	0.785412	1.047216	0.785412	0.785412	1.047216	0.785412	0.785412	1.047216	0.785412	0.785412	1.047216	0.785412	2.268890	0.000000
0.003000	-0.000038	0.087300	0.436363	0.436363	-0.392712	-0.785424	0.785424	1.047232	0.785424	0.785424	1.047232	0.785424	0.785424	1.047232	0.785424	0.785424	1.047232	0.785424	2.268851	0.000000
0.004000	-0.000064	0.087300	0.436372	0.436372	-0.392720	-0.785440	0.785440	1.047254	0.785440	0.785440	1.047254	0.785440	0.785440	1.047254	0.785440	0.785440	1.047254	0.785440	2.268799	0.000000
0.005000	-0.000096	0.087300	0.436384	0.436384	-0.392730	-0.785461	0.785461	1.047281	0.785461	0.785461	1.047281	0.785461	0.785461	1.047281	0.785461	0.785461	1.047281	0.785461	2.268733	0.000000
0.006000	-0.000135	0.087300	0.436397	0.436397	-0.392743	-0.785485	0.785485	1.047314	0.785485	0.785485	1.047314	0.785485	0.785485	1.047314	0.785485	0.785485	1.047314	0.785485	2.268654	0.000000
0.007000	-0.000180	0.087300	0.436413	0.436413	-0.392757	-0.785514	0.785514	1.047352	0.785514	0.785514	1.047352	0.785514	0.785514	1.047352	0.785514	0.785514	1.047352	0.785514	2.268561	0.000000
0.008000	-0.000233	0.087300	0.436432	0.436432	-0.392774	-0.785547	0.785547	1.047397	0.785547	0.785547	1.047397	0.785547	0.785547	1.047397	0.785547	0.785547	1.047397	0.785547	2.268455	0.000000
0.009000	-0.000293	0.087300	0.436453	0.436453	-0.392793	-0.785585	0.785585	1.047447	0.785585	0.785585	1.047447	0.785585	0.785585	1.047447	0.785585	0.785585	1.047447	0.785585	2.268334	0.000000
0.010000	-0.000359	0.087300	0.436476	0.436476	-0.392814	-0.785627	0.785627	1.047503	0.785627	0.785627	1.047503	0.785627	0.785627	1.047503	0.785627	0.785627	1.047503	0.785627	2.268199	0.000000
0.011000	-0.000433	0.087300	0.436502	0.436502	-0.392837	-0.785674	0.785674	1.047565	0.785674	0.785674	1.047565	0.785674	0.785674	1.047565	0.785674	0.785674	1.047565	0.785674	2.268049	0.000000
0.012000	-0.000513	0.087300	0.436531	0.436531	-0.392862	-0.785725	0.785725	1.047633	0.785725	0.785725	1.047633	0.785725	0.785725	1.047633	0.785725	0.785725	1.047633	0.785725	2.267885	0.000000
0.013000	-0.000602	0.087300	0.436561	0.436561	-0.392890	-0.785781	0.785781	1.047708	0.785781	0.785781	1.047708	0.785781	0.785781	1.047708	0.785781	0.785781	1.047708	0.785781	2.267706	0.000000
0.014000	-0.000697	0.087300	0.436595	0.436595	-0.392921	-0.785841	0.785841	1.047788	0.785841	0.785841	1.047788	0.785841	0.785841	1.047788	0.785841	0.785841	1.047788	0.785841	2.267512	0.000000
0.015000	-0.000800	0.087300	0.436631	0.436631	-0.392953	-0.785906	0.785906	1.047875	0.785906	0.785906	1.047875	0.785906	0.785906	1.047875	0.785906	0.785906	1.047875	0.785906	2.267303	0.000000
0.016000	-0.000911	0.087300	0.436670	0.436670	-0.392988	-0.785976	0.785976	1.047968	0.785976	0.785976	1.047968	0.785976	0.785976	1.047968	0.785976	0.785976	1.047968	0.785976	2.267078	0.000000
0.017000	-0.001029	0.087300	0.436712	0.436712	-0.393026	-0.786051	0.786051	1.048068	0.786051	0.786051	1.048068	0.786051	0.786051	1.048068	0.786051	0.786051	1.048068	0.786051	2.266838	0.000000
0.018000	-0.001155	0.087300	0.436756	0.436756	-0.393065	-0.786131	0.786131	1.048174	0.786131	0.786131	1.048174	0.786131	0.786131	1.048174	0.786131	0.786131	1.048174	0.786131	2.266582	0.000000
0.019000	-0.001289	0.087300	0.436803	0.436803	-0.393108	-0.786215	0.786215	1.048287	0.786215	0.786215	1.048287	0.786215	0.786215	1.048287	0.786215	0.786215	1.048287	0.786215	2.266310	0.000000
0.020000	-0.001431	0.087300	0.436853	0.436853	-0.393153	-0.786305	0.786305	1.048407	0.786305	0.786305	1.048407	0.786305	0.786305	1.048407	0.786305	0.786305	1.048407	0.786305	2.266022	0.000000
0.021000	-0.001580	0.087300	0.436906	0.436906	-0.393200	-0.786400	0.786400	1.048533	0.786400	0.786400	1.048533	0.786400	0.786400	1.048533	0.786400	0.786400	1.048533	0.786400	2.265718	0.000000
0.022000	-0.001738	0.087300	0.436961	0.436961	-0.393250	-0.786500	0.786500	1.048667	0.786500	0.786500	1.048667	0.786500	0.786500	1.048667	0.786500	0.786500	1.048667	0.786500	2.265397	0.000000
0.023000	-0.001905	0.087300	0.437020	0.437020	-0.393303	-0.786605	0.786605	1.048807	0.786605	0.786605	1.048807	0.786605	0.786605	1.048807	0.786605	0.786605	1.048807	0.786605	2.265059	0.000000
0.024000	-0.002079	0.087300	0.437081	0.437081	-0.393358	-0.786716	0.786716	1.048954	0.786716	0.786716	1.048954	0.786716	0.786716	1.048954	0.786716	0.786716	1.048954	0.786716	2.264705	0.000000
0.025000	-0.002262	0.087300	0.437145	0.437145	-0.393416	-0.786832	0.786832	1.049109	0.786832	0.786832	1.049109	0.786832	0.786832	1.049109	0.786832	0.786832	1.049109	0.786832	2.264333	0.000000
